<svg id="Layer_1" data-name="Layer 1" xmlns="http://www.w3.org/2000/svg" viewBox="0 0 66 66">
  <defs>
    <style>
      .cls-1 {
        fill: #78e08f;
      }

      .cls-2 {
        font-size: 19px;
        fill: #272727;
        font-family: InkFree, Ink Free;
      }

      .cls-3 {
        letter-spacing: -0.02em;
      }

      .cls-4 {
        letter-spacing: 0.05em;
      }

      .cls-5 {
        fill: #fff;
      }

      .cls-6 {
        fill: #ffc600;
      }
    </style>
  </defs>
  <title>logo</title>
  <circle class="cls-1" cx="33" cy="33" r="33"/>
  <text class="cls-2" transform="translate(11 27.38)">C<tspan class="cls-3" x="10.41" y="0" xml:space="preserve">    </tspan><tspan x="31.08" y="0">K</tspan><tspan class="cls-4" x="0" y="22.8">Hou</tspan><tspan x="33.54" y="22.8">s</tspan></text>
  <path class="cls-5" d="M32.93,22a11.57,11.57,0,0,1-.3,2.63C32.05,27.19,30.62,29,29,29s-2.85-1.53-3.52-3.77A11.68,11.68,0,0,1,25,22c0-3.87,1.78-7,4-7S32.93,18.13,32.93,22Z" transform="translate(-1 -1)"/>
  <text x="-1" y="-1"></text>
  <path class="cls-6" d="M32.63,24.63C32.05,27.19,30.62,29,29,29s-2.85-1.53-3.52-3.77a4.35,4.35,0,0,1,7.19-.6Z" transform="translate(-1 -1)"/>
  <path class="cls-5" d="M43.5,22a11.57,11.57,0,0,1-.3,2.63c-.58,2.56-2,4.37-3.66,4.37S36.68,27.47,36,25.23A11.31,11.31,0,0,1,35.57,22c0-3.87,1.78-7,4-7S43.5,18.13,43.5,22Z" transform="translate(-1 -1)"/>
  <path class="cls-6" d="M43.2,24.63c-.58,2.56-2,4.37-3.66,4.37S36.68,27.47,36,25.23A4.23,4.23,0,0,1,39.8,23,4.28,4.28,0,0,1,43.2,24.63Z" transform="translate(-1 -1)"/>
</svg>
